<svg width="179" height="173" viewBox="0 0 179 173" fill="none" xmlns="http://www.w3.org/2000/svg">
<rect x="1.66602" y="1.66675" width="176" height="170" rx="85" fill="url(#paint0_linear_8_507)"/>
<rect x="1.66602" y="1.66675" width="176" height="170" rx="85" stroke="url(#paint1_linear_8_507)" stroke-width="2"/>
<rect x="21.666" y="21.6667" width="136" height="130" rx="65" fill="url(#paint2_linear_8_507)"/>
<rect x="21.666" y="21.6667" width="136" height="130" rx="65" stroke="url(#paint3_linear_8_507)" stroke-width="2"/>
<rect x="43.666" y="43.6667" width="92" height="86" rx="43" fill="url(#paint4_linear_8_507)"/>
<rect x="43.666" y="43.6667" width="92" height="86" rx="43" stroke="url(#paint5_linear_8_507)" stroke-width="2"/>
<g clip-path="url(#clip0_8_507)">
<path fill-rule="evenodd" clip-rule="evenodd" d="M71.066 64.6667C69.8991 64.6667 68.7799 65.1303 67.9547 65.9555C67.1296 66.7806 66.666 67.8998 66.666 69.0667V99.8667C66.666 101.034 67.1296 102.153 67.9547 102.978C68.7799 103.803 69.8991 104.267 71.066 104.267H106.266C107.433 104.267 108.552 103.803 109.377 102.978C110.202 102.153 110.666 101.034 110.666 99.8667V69.0667C110.666 67.8998 110.202 66.7806 109.377 65.9555C108.552 65.1303 107.433 64.6667 106.266 64.6667H71.066ZM81.241 77.0527C81.2898 76.6321 81.4363 76.2288 81.6687 75.8748C81.9011 75.5209 82.213 75.2261 82.5795 75.0141C82.946 74.8021 83.357 74.6787 83.7797 74.6537C84.2024 74.6288 84.6251 74.703 85.014 74.8703C86.1228 75.3455 88.4636 76.4147 91.4292 78.1263C93.5134 79.3175 95.5262 80.6295 97.4572 82.0555C97.7967 82.3082 98.0725 82.6367 98.2625 83.0148C98.4524 83.393 98.5514 83.8103 98.5514 84.2335C98.5514 84.6567 98.4524 85.0741 98.2625 85.4522C98.0725 85.8304 97.7967 86.1589 97.4572 86.4115C95.526 87.8361 93.5133 89.1466 91.4292 90.3363C89.3562 91.5472 87.2141 92.6359 85.014 93.5967C84.6251 93.7646 84.2023 93.8392 83.7795 93.8144C83.3566 93.7897 82.9454 93.6663 82.5788 93.4543C82.2121 93.2422 81.9001 92.9472 81.6679 92.593C81.4356 92.2388 81.2894 91.8352 81.241 91.4143C80.977 89.0299 80.8478 86.6325 80.8538 84.2335C80.8538 80.8213 81.1002 78.2517 81.241 77.0527Z" fill="white"/>
</g>
<defs>
<linearGradient id="paint0_linear_8_507" x1="89.666" y1="0.666748" x2="89.666" y2="172.667" gradientUnits="userSpaceOnUse">
<stop stop-color="#1A1A1A"/>
<stop offset="0.565952" stop-color="#1A1A1A" stop-opacity="0"/>
</linearGradient>
<linearGradient id="paint1_linear_8_507" x1="89.666" y1="0.666748" x2="89.666" y2="172.667" gradientUnits="userSpaceOnUse">
<stop stop-color="#333333"/>
<stop offset="0.745602" stop-color="#333333" stop-opacity="0"/>
</linearGradient>
<linearGradient id="paint2_linear_8_507" x1="89.666" y1="20.6667" x2="89.666" y2="152.667" gradientUnits="userSpaceOnUse">
<stop stop-color="#1A1A1A"/>
<stop offset="0.658009" stop-color="#1A1A1A" stop-opacity="0"/>
</linearGradient>
<linearGradient id="paint3_linear_8_507" x1="89.666" y1="20.6667" x2="89.666" y2="152.667" gradientUnits="userSpaceOnUse">
<stop stop-color="#333333"/>
<stop offset="0.82384" stop-color="#333333" stop-opacity="0"/>
</linearGradient>
<linearGradient id="paint4_linear_8_507" x1="89.666" y1="44.6667" x2="89.666" y2="128.667" gradientUnits="userSpaceOnUse">
<stop stop-color="#1A1A1A"/>
<stop offset="1" stop-color="#1A1A1A" stop-opacity="0"/>
</linearGradient>
<linearGradient id="paint5_linear_8_507" x1="89.666" y1="44.6667" x2="89.666" y2="128.667" gradientUnits="userSpaceOnUse">
<stop stop-color="#333333"/>
<stop offset="0.84964" stop-color="#333333" stop-opacity="0"/>
</linearGradient>
<clipPath id="clip0_8_507">
<rect width="50" height="44" fill="white" transform="translate(64.666 64.6667)"/>
</clipPath>
</defs>
</svg>
