<svg width="173" height="174" viewBox="0 0 173 174" fill="none" xmlns="http://www.w3.org/2000/svg">
<rect x="1" y="1.66675" width="171" height="171" rx="85.5" fill="url(#paint0_linear_8_479)"/>
<rect x="1" y="1.66675" width="171" height="171" rx="85.5" stroke="url(#paint1_linear_8_479)" stroke-width="2"/>
<rect x="21" y="21.6667" width="131" height="131" rx="65.5" fill="url(#paint2_linear_8_479)"/>
<rect x="21" y="21.6667" width="131" height="131" rx="65.5" stroke="url(#paint3_linear_8_479)" stroke-width="2"/>
<rect x="43" y="43.6667" width="87" height="87" rx="43.5" fill="url(#paint4_linear_8_479)"/>
<rect x="43" y="43.6667" width="87" height="87" rx="43.5" stroke="url(#paint5_linear_8_479)" stroke-width="2"/>
<path fill-rule="evenodd" clip-rule="evenodd" d="M69.7391 72.0267V74.2667H67.4435C66.5302 74.2667 65.6543 74.6207 65.0086 75.2509C64.3628 75.881 64 76.7356 64 77.6267V93.3067C64 94.1979 64.3628 95.0525 65.0086 95.6826C65.6543 96.3127 66.5302 96.6667 67.4435 96.6667H98.8174C99.2696 96.6667 99.7174 96.5798 100.135 96.411C100.553 96.2421 100.933 95.9946 101.252 95.6826C101.572 95.3706 101.826 95.0002 101.999 94.5926C102.172 94.1849 102.261 93.748 102.261 93.3067V91.0667H104.557C106.454 91.0667 108 89.5585 108 87.7067V72.0267C108 70.175 106.454 68.6667 104.557 68.6667H73.1826C71.2849 68.6667 69.7391 70.175 69.7391 72.0267ZM73.5652 72.4001V74.2667H98.8174C99.2696 74.2667 99.7174 74.3537 100.135 74.5225C100.553 74.6914 100.933 74.9389 101.252 75.2509C101.572 75.5629 101.826 75.9333 101.999 76.3409C102.172 76.7486 102.261 77.1855 102.261 77.6267V87.3334H104.174V72.4001H73.5652ZM79.3043 85.4667C79.3043 84.4766 79.7075 83.527 80.425 82.8269C81.1425 82.1267 82.1157 81.7334 83.1304 81.7334C84.1452 81.7334 85.1184 82.1267 85.8359 82.8269C86.5534 83.527 86.9565 84.4766 86.9565 85.4667C86.9565 86.4569 86.5534 87.4065 85.8359 88.1066C85.1184 88.8067 84.1452 89.2001 83.1304 89.2001C82.1157 89.2001 81.1425 88.8067 80.425 88.1066C79.7075 87.4065 79.3043 86.4569 79.3043 85.4667Z" fill="white"/>
<defs>
<linearGradient id="paint0_linear_8_479" x1="86.5" y1="0.666748" x2="86.5" y2="173.667" gradientUnits="userSpaceOnUse">
<stop stop-color="#1A1A1A"/>
<stop offset="0.565952" stop-color="#1A1A1A" stop-opacity="0"/>
</linearGradient>
<linearGradient id="paint1_linear_8_479" x1="86.5" y1="0.666748" x2="86.5" y2="173.667" gradientUnits="userSpaceOnUse">
<stop stop-color="#333333"/>
<stop offset="0.745602" stop-color="#333333" stop-opacity="0"/>
</linearGradient>
<linearGradient id="paint2_linear_8_479" x1="86.5" y1="20.6667" x2="86.5" y2="153.667" gradientUnits="userSpaceOnUse">
<stop stop-color="#1A1A1A"/>
<stop offset="0.658009" stop-color="#1A1A1A" stop-opacity="0"/>
</linearGradient>
<linearGradient id="paint3_linear_8_479" x1="86.5" y1="20.6667" x2="86.5" y2="153.667" gradientUnits="userSpaceOnUse">
<stop stop-color="#333333"/>
<stop offset="0.82384" stop-color="#333333" stop-opacity="0"/>
</linearGradient>
<linearGradient id="paint4_linear_8_479" x1="86.5" y1="44.6667" x2="86.5" y2="129.667" gradientUnits="userSpaceOnUse">
<stop stop-color="#1A1A1A"/>
<stop offset="1" stop-color="#1A1A1A" stop-opacity="0"/>
</linearGradient>
<linearGradient id="paint5_linear_8_479" x1="86.5" y1="44.6667" x2="86.5" y2="129.667" gradientUnits="userSpaceOnUse">
<stop stop-color="#333333"/>
<stop offset="0.84964" stop-color="#333333" stop-opacity="0"/>
</linearGradient>
</defs>
</svg>
