<svg width="133" height="132" viewBox="0 0 133 132" fill="none" xmlns="http://www.w3.org/2000/svg">
<rect x="1.66602" y="1" width="130" height="130" rx="65" fill="url(#paint0_linear_8_465)"/>
<rect x="1.66602" y="1" width="130" height="130" rx="65" stroke="url(#paint1_linear_8_465)" stroke-width="2"/>
<rect x="21.666" y="21" width="90" height="90" rx="45" fill="url(#paint2_linear_8_465)"/>
<rect x="21.666" y="21" width="90" height="90" rx="45" stroke="url(#paint3_linear_8_465)" stroke-width="2"/>
<g clip-path="url(#clip0_8_465)">
<path fill-rule="evenodd" clip-rule="evenodd" d="M65.2082 76.3153L56.3643 67.4676C57.3368 65.8398 58.3062 64.1553 59.2661 62.4802C62.4638 56.9197 65.5859 51.4914 68.5129 48.6671C76.4568 40.7199 87.3371 45.3295 87.3371 45.3295C87.3371 45.3295 91.9447 56.2144 84.0009 64.1616C81.1998 67.0646 75.8588 70.144 70.3415 73.3178C68.6231 74.3096 66.8889 75.3078 65.2082 76.3153ZM71.9435 55.7484C71.9435 54.4273 72.4681 53.1603 73.4018 52.2262C74.3356 51.292 75.602 50.7672 76.9226 50.7672C78.2431 50.7672 79.5095 51.292 80.4433 52.2262C81.3771 53.1603 81.9016 54.4273 81.9016 55.7484C81.869 57.0474 81.3302 58.2822 80.4003 59.1894C79.4704 60.0966 78.223 60.6043 76.9241 60.6043C75.6253 60.6043 74.3779 60.0966 73.448 59.1894C72.5181 58.2822 71.9762 57.0474 71.9435 55.7484ZM59.0741 55.0179C54.6112 53.8309 50.4221 56.0286 46.7051 59.4386C46.5337 59.6001 46.4024 59.7995 46.3218 60.0209C46.2411 60.2422 46.2132 60.4793 46.2404 60.7133C46.2677 60.9473 46.3492 61.1718 46.4785 61.3686C46.6078 61.5655 46.7814 61.7294 46.9853 61.8473L52.9809 65.4619L52.9872 65.4494C53.8527 64.001 54.8189 62.3228 55.8009 60.6225C56.9182 58.6798 58.0544 56.7087 59.0741 55.0179ZM67.2162 79.7033L70.8294 85.7014C70.9474 85.9052 71.1115 86.0785 71.3085 86.2076C71.5054 86.3367 71.7298 86.4179 71.9637 86.4448C72.1976 86.4717 72.4345 86.4436 72.6556 86.3626C72.8767 86.2817 73.0758 86.1501 73.2371 85.9785C76.6456 82.2631 78.8456 78.0691 77.6559 73.6043C76.013 74.593 74.2883 75.588 72.5793 76.5735L72.318 76.7246C70.5933 77.7196 68.8843 78.702 67.232 79.6938L67.2162 79.7033ZM52.855 73.4186C54.1271 73.396 55.3761 73.7596 56.4374 74.4614C57.4988 75.1632 58.3227 76.1703 58.8005 77.35C59.2782 78.5296 59.3875 79.8264 59.1139 81.0694C58.8402 82.3123 58.1965 83.4432 57.2676 84.3129C56.5688 84.9804 55.4767 85.5062 54.4664 85.9061C53.333 86.3423 52.1774 86.7186 51.0044 87.0333C49.8493 87.3482 48.7478 87.6001 47.9137 87.7669C47.563 87.8389 47.2104 87.9008 46.8562 87.9527C46.7177 87.9716 46.5782 87.9852 46.4376 87.9936C46.2274 88.0126 46.0154 87.989 45.8145 87.9244C45.5191 87.8383 45.2554 87.6676 45.0559 87.4332C44.8847 87.2347 44.7657 86.9966 44.7097 86.7405C44.6699 86.5586 44.6572 86.3719 44.672 86.1863C44.6814 86.0604 44.7003 85.9155 44.7192 85.7833C44.7601 85.5062 44.823 85.1441 44.908 84.7316C45.0748 83.9004 45.3329 82.8047 45.6476 81.6554C45.9624 80.5093 46.3463 79.2813 46.7775 78.2077C47.1804 77.1969 47.7028 76.1075 48.3701 75.4117C48.9461 74.7959 49.64 74.3022 50.4104 73.9599C51.1808 73.6175 52.0121 73.4334 52.855 73.4186Z" fill="white"/>
</g>
<defs>
<linearGradient id="paint0_linear_8_465" x1="66.666" y1="0" x2="66.666" y2="132" gradientUnits="userSpaceOnUse">
<stop stop-color="#1A1A1A"/>
<stop offset="0.565952" stop-color="#1A1A1A" stop-opacity="0"/>
</linearGradient>
<linearGradient id="paint1_linear_8_465" x1="66.666" y1="0" x2="66.666" y2="132" gradientUnits="userSpaceOnUse">
<stop stop-color="#333333"/>
<stop offset="0.745602" stop-color="#333333" stop-opacity="0"/>
</linearGradient>
<linearGradient id="paint2_linear_8_465" x1="66.666" y1="20" x2="66.666" y2="112" gradientUnits="userSpaceOnUse">
<stop stop-color="#1A1A1A"/>
<stop offset="0.658009" stop-color="#1A1A1A" stop-opacity="0"/>
</linearGradient>
<linearGradient id="paint3_linear_8_465" x1="66.666" y1="20" x2="66.666" y2="112" gradientUnits="userSpaceOnUse">
<stop stop-color="#333333"/>
<stop offset="0.82384" stop-color="#333333" stop-opacity="0"/>
</linearGradient>
<clipPath id="clip0_8_465">
<rect width="44" height="44" fill="white" transform="translate(44.666 44)"/>
</clipPath>
</defs>
</svg>
