<svg width="156" height="159" viewBox="0 0 156 159" fill="none" xmlns="http://www.w3.org/2000/svg">
<rect x="1.33398" y="1" width="153.666" height="156.74" rx="76.8328" fill="url(#paint0_linear_8_451)"/>
<rect x="1.33398" y="1" width="153.666" height="156.74" rx="76.8328" stroke="url(#paint1_linear_8_451)" stroke-width="2"/>
<rect x="21.334" y="21" width="113.666" height="116.74" rx="56.8328" fill="url(#paint2_linear_8_451)"/>
<rect x="21.334" y="21" width="113.666" height="116.74" rx="56.8328" stroke="url(#paint3_linear_8_451)" stroke-width="2"/>
<rect x="43.334" y="43" width="69.6656" height="72.74" rx="34.8328" fill="url(#paint4_linear_8_451)"/>
<rect x="43.334" y="43" width="69.6656" height="72.74" rx="34.8328" stroke="url(#paint5_linear_8_451)" stroke-width="2"/>
<path d="M64.334 76.2961H70.482V87.0551H64.334V76.2961ZM75.093 71.6851H81.241V91.6661H75.093V71.6851Z" fill="black" stroke="white" stroke-width="2" stroke-linejoin="round"/>
<path d="M78.168 94.74V91.666V94.74Z" fill="black"/>
<path d="M78.168 94.74V91.666" stroke="white" stroke-width="2" stroke-linecap="round" stroke-linejoin="round"/>
<path d="M85.8516 70.1479H91.9996V77.0645H85.8516V70.1479Z" fill="black" stroke="white" stroke-width="2" stroke-linejoin="round"/>
<path d="M67.4082 76.296V68.611V76.296ZM88.9262 87.055V77.0645V87.055ZM88.9262 70.148V64V70.148Z" fill="black"/>
<path d="M67.4082 76.296V68.611M88.9262 87.055V77.0645M88.9262 70.148V64" stroke="white" stroke-width="2" stroke-linecap="round" stroke-linejoin="round"/>
<defs>
<linearGradient id="paint0_linear_8_451" x1="78.1668" y1="0" x2="78.1668" y2="158.74" gradientUnits="userSpaceOnUse">
<stop stop-color="#1A1A1A"/>
<stop offset="0.565952" stop-color="#1A1A1A" stop-opacity="0"/>
</linearGradient>
<linearGradient id="paint1_linear_8_451" x1="78.1668" y1="0" x2="78.1668" y2="158.74" gradientUnits="userSpaceOnUse">
<stop stop-color="#333333"/>
<stop offset="0.745602" stop-color="#333333" stop-opacity="0"/>
</linearGradient>
<linearGradient id="paint2_linear_8_451" x1="78.1668" y1="20" x2="78.1668" y2="138.74" gradientUnits="userSpaceOnUse">
<stop stop-color="#1A1A1A"/>
<stop offset="0.658009" stop-color="#1A1A1A" stop-opacity="0"/>
</linearGradient>
<linearGradient id="paint3_linear_8_451" x1="78.1668" y1="20" x2="78.1668" y2="138.74" gradientUnits="userSpaceOnUse">
<stop stop-color="#333333"/>
<stop offset="0.82384" stop-color="#333333" stop-opacity="0"/>
</linearGradient>
<linearGradient id="paint4_linear_8_451" x1="78.1668" y1="44" x2="78.1668" y2="114.74" gradientUnits="userSpaceOnUse">
<stop stop-color="#1A1A1A"/>
<stop offset="1" stop-color="#1A1A1A" stop-opacity="0"/>
</linearGradient>
<linearGradient id="paint5_linear_8_451" x1="78.1668" y1="44" x2="78.1668" y2="114.74" gradientUnits="userSpaceOnUse">
<stop stop-color="#333333"/>
<stop offset="0.84964" stop-color="#333333" stop-opacity="0"/>
</linearGradient>
</defs>
</svg>
