<svg width="173" height="173" viewBox="0 0 173 173" fill="none" xmlns="http://www.w3.org/2000/svg">
<rect x="1.33398" y="1.3335" width="170" height="170" rx="85" fill="url(#paint0_linear_8_535)"/>
<rect x="1.33398" y="1.3335" width="170" height="170" rx="85" stroke="url(#paint1_linear_8_535)" stroke-width="2"/>
<rect x="21.334" y="21.3335" width="130" height="130" rx="65" fill="url(#paint2_linear_8_535)"/>
<rect x="21.334" y="21.3335" width="130" height="130" rx="65" stroke="url(#paint3_linear_8_535)" stroke-width="2"/>
<rect x="43.334" y="43.3335" width="86" height="86" rx="43" fill="url(#paint4_linear_8_535)"/>
<rect x="43.334" y="43.3335" width="86" height="86" rx="43" stroke="url(#paint5_linear_8_535)" stroke-width="2"/>
<g clip-path="url(#clip0_8_535)">
<path d="M88.247 102.385C88.247 101.869 88.0455 101.373 87.6867 101.008C87.3279 100.643 86.8414 100.437 86.334 100.437H85.8557C85.7289 100.437 85.6072 100.386 85.5175 100.295C85.4279 100.203 85.3775 100.08 85.3775 99.9504V98.9179C85.3796 98.8073 85.4187 98.7008 85.4882 98.6158C85.5578 98.5308 85.6536 98.4725 85.7601 98.4504C86.2674 98.3987 86.7339 98.1439 87.0568 97.7421C87.3797 97.3402 87.5325 96.8242 87.4818 96.3075C87.4311 95.7909 87.1809 95.3159 86.7862 94.9871C86.3916 94.6583 85.8848 94.5026 85.3775 94.5543H69.1166C68.8629 94.5543 68.6196 94.4517 68.4402 94.269C68.2608 94.0863 68.1601 93.8386 68.1601 93.5802V70.2036C68.1601 69.9453 68.2608 69.6976 68.4402 69.5149C68.6196 69.3322 68.8629 69.2296 69.1166 69.2296H103.551C103.805 69.2296 104.048 69.3322 104.228 69.5149C104.407 69.6976 104.508 69.9453 104.508 70.2036V90.6582C104.508 91.1748 104.709 91.6703 105.068 92.0357C105.427 92.401 105.914 92.6062 106.421 92.6062C106.928 92.6062 107.415 92.401 107.774 92.0357C108.132 91.6703 108.334 91.1748 108.334 90.6582V69.2296C108.334 68.1963 107.931 67.2053 107.213 66.4746C106.496 65.744 105.523 65.3335 104.508 65.3335H68.1601C67.1453 65.3335 66.1721 65.744 65.4546 66.4746C64.7371 67.2053 64.334 68.1963 64.334 69.2296V94.5543C64.334 95.5876 64.7371 96.5786 65.4546 97.3092C66.1721 98.0399 67.1453 98.4504 68.1601 98.4504H81.0731C81.2 98.4504 81.3216 98.5017 81.4113 98.593C81.501 98.6844 81.5514 98.8082 81.5514 98.9374V99.9504C81.5514 100.08 81.501 100.203 81.4113 100.295C81.3216 100.386 81.2 100.437 81.0731 100.437H76.7688C76.2614 100.437 75.7748 100.643 75.416 101.008C75.0573 101.373 74.8557 101.869 74.8557 102.385C74.8557 102.902 75.0573 103.398 75.416 103.763C75.7748 104.128 76.2614 104.333 76.7688 104.333H86.334C86.8414 104.333 87.3279 104.128 87.6867 103.763C88.0455 103.398 88.247 102.902 88.247 102.385Z" fill="white"/>
<path d="M81.0616 73.2548C80.7136 73.0589 80.3038 73.0038 79.9164 73.1006C79.529 73.1975 79.1934 73.439 78.9785 73.7756L76.0831 78.5041C76.0326 78.5797 75.9645 78.6419 75.8847 78.6855C75.8049 78.729 75.7157 78.7525 75.6248 78.7541H75.0415C74.8793 78.7507 74.7186 78.7868 74.5734 78.8594C74.4283 78.932 74.3029 79.0388 74.2083 79.1707C74.1113 79.3 74.0457 79.4502 74.0168 79.6093C73.9879 79.7684 73.9964 79.932 74.0417 80.0872L77.1662 90.5025C77.2262 90.7206 77.357 90.9127 77.538 91.0484C77.719 91.1841 77.9399 91.2559 78.1661 91.2524H88.5814C88.798 91.2508 89.0087 91.1817 89.1841 91.0548C89.3596 90.9278 89.4911 90.7494 89.5604 90.5442L93.0392 80.1289C93.0919 79.9728 93.1068 79.8065 93.0828 79.6435C93.0587 79.4805 92.9963 79.3256 92.9008 79.1914C92.8052 79.0572 92.6792 78.9476 92.5331 78.8716C92.3869 78.7956 92.2248 78.7553 92.0601 78.7541H91.1227C91.0318 78.7525 90.9427 78.729 90.8628 78.6855C90.783 78.6419 90.715 78.5797 90.6645 78.5041L87.8315 73.7756C87.616 73.4137 87.2657 73.1522 86.8574 73.0487C86.4492 72.9452 86.0166 73.0081 85.6547 73.2235C85.2928 73.439 85.0314 73.7894 84.9279 74.1976C84.8244 74.6059 84.8872 75.0385 85.1027 75.4003L86.6442 77.9625C86.6845 78.0434 86.7055 78.1325 86.7055 78.2229C86.7055 78.3133 86.6845 78.4024 86.6442 78.4833C86.5992 78.5655 86.5329 78.634 86.4522 78.6816C86.3716 78.7293 86.2796 78.7543 86.1859 78.7541H80.4991C80.408 78.7504 80.3192 78.7237 80.2411 78.6765C80.163 78.6294 80.0981 78.5632 80.0524 78.4843C80.0067 78.4053 79.9816 78.3161 79.9796 78.2249C79.9776 78.1337 79.9987 78.0434 80.0409 77.9625L81.5823 75.4003C81.7975 75.0467 81.8635 74.6221 81.7659 74.2198C81.6682 73.8175 81.4149 73.4705 81.0616 73.2548ZM113.516 100.46C113.665 99.7951 113.557 99.0985 113.213 98.5107C112.869 97.923 112.314 97.4878 111.662 97.2933L103.85 95.0228C103.742 94.9912 103.647 94.9254 103.579 94.8353C103.512 94.7451 103.475 94.6355 103.475 94.5228V85.0032C103.475 84.4508 103.256 83.9209 102.865 83.5303C102.475 83.1396 101.945 82.9202 101.392 82.9202C100.84 82.9202 100.31 83.1396 99.9193 83.5303C99.5286 83.9209 99.3092 84.4508 99.3092 85.0032V99.7096C99.3092 99.8223 99.2726 99.9319 99.205 100.022C99.1374 100.112 99.0424 100.178 98.9342 100.21C98.8273 100.239 98.7141 100.234 98.6099 100.197C98.5056 100.16 98.4152 100.091 98.3509 100.001C95.268 95.5435 90.4353 96.96 92.7059 100.439L98.955 109.771C98.9985 109.842 99.0598 109.901 99.1329 109.941C99.206 109.981 99.2883 110.001 99.3716 110H111.412C111.535 109.997 111.655 109.953 111.749 109.873C111.844 109.794 111.909 109.684 111.932 109.562L113.453 101.23L113.516 100.46Z" fill="white"/>
</g>
<defs>
<linearGradient id="paint0_linear_8_535" x1="86.334" y1="0.333496" x2="86.334" y2="172.333" gradientUnits="userSpaceOnUse">
<stop stop-color="#1A1A1A"/>
<stop offset="0.565952" stop-color="#1A1A1A" stop-opacity="0"/>
</linearGradient>
<linearGradient id="paint1_linear_8_535" x1="86.334" y1="0.333496" x2="86.334" y2="172.333" gradientUnits="userSpaceOnUse">
<stop stop-color="#333333"/>
<stop offset="0.745602" stop-color="#333333" stop-opacity="0"/>
</linearGradient>
<linearGradient id="paint2_linear_8_535" x1="86.334" y1="20.3335" x2="86.334" y2="152.333" gradientUnits="userSpaceOnUse">
<stop stop-color="#1A1A1A"/>
<stop offset="0.658009" stop-color="#1A1A1A" stop-opacity="0"/>
</linearGradient>
<linearGradient id="paint3_linear_8_535" x1="86.334" y1="20.3335" x2="86.334" y2="152.333" gradientUnits="userSpaceOnUse">
<stop stop-color="#333333"/>
<stop offset="0.82384" stop-color="#333333" stop-opacity="0"/>
</linearGradient>
<linearGradient id="paint4_linear_8_535" x1="86.334" y1="44.3335" x2="86.334" y2="128.333" gradientUnits="userSpaceOnUse">
<stop stop-color="#1A1A1A"/>
<stop offset="1" stop-color="#1A1A1A" stop-opacity="0"/>
</linearGradient>
<linearGradient id="paint5_linear_8_535" x1="86.334" y1="44.3335" x2="86.334" y2="128.333" gradientUnits="userSpaceOnUse">
<stop stop-color="#333333"/>
<stop offset="0.84964" stop-color="#333333" stop-opacity="0"/>
</linearGradient>
<clipPath id="clip0_8_535">
<rect width="44" height="44" fill="white" transform="translate(64.334 64.3335)"/>
</clipPath>
</defs>
</svg>
